<?xml version="1.0" encoding="UTF-8" standalone="no"?> <svg width="48" height="48" viewBox="0 0 48 48" fill="#aaaaaa" xmlns="http://www.w3.org/2000/svg">
<path d="M44 15.056V14.827C44.0013 13.8629 43.7144 12.9203 43.1761 12.1205C42.6378 11.3206 41.8727 10.6999 40.979 10.338C40.9281 9.17221 40.4298 8.0709 39.5878 7.26299C38.7458 6.45509 37.6249 6.00275 36.458 6H11.542C10.3628 6.00235 9.23076 6.46353 8.38562 7.28591C7.54047 8.10828 7.04855 9.22728 7.014 10.406C6.16029 10.7871 5.43539 11.4076 4.92708 12.1922C4.41877 12.9769 4.14884 13.8921 4.15 14.827V14.932C3.4871 15.397 2.94572 16.0146 2.57154 16.7327C2.19736 17.4507 2.00133 18.2483 2 19.058V37.942C2.00159 39.283 2.53499 40.5686 3.48321 41.5168C4.43142 42.465 5.71702 42.9984 7.058 43H40.942C42.283 42.9984 43.5686 42.465 44.5168 41.5168C45.465 40.5686 45.9984 39.283 46 37.942V19.058C45.9975 18.2819 45.8156 17.517 45.4687 16.8228C45.1218 16.1286 44.6191 15.5239 44 15.056V15.056ZM11.542 8H36.458C37.0327 8.0013 37.5901 8.19725 38.0392 8.55591C38.4883 8.91457 38.8026 9.41478 38.931 9.975H9.069C9.19737 9.41478 9.51173 8.91457 9.96082 8.55591C10.4099 8.19725 10.9673 8.0013 11.542 8V8ZM6.49 13.475C6.73404 13.0217 7.09623 12.6429 7.53814 12.3789C7.98005 12.1148 8.48519 11.9752 9 11.975H39.148C39.7777 11.9727 40.3902 12.1804 40.8887 12.5652C41.3871 12.9501 41.743 13.4902 41.9 14.1C41.5839 14.0362 41.2625 14.0027 40.94 14H7.058C6.78961 14.0057 6.5221 14.0328 6.258 14.081C6.31148 13.8707 6.38934 13.6673 6.49 13.475V13.475ZM44 37.942C43.9989 38.7527 43.6764 39.5299 43.1032 40.1032C42.5299 40.6764 41.7527 40.9989 40.942 41H7.058C6.24729 40.9989 5.47009 40.6764 4.89684 40.1032C4.32358 39.5299 4.00106 38.7527 4 37.942V19.058C4.00106 18.2473 4.32358 17.4701 4.89684 16.8968C5.47009 16.3236 6.24729 16.0011 7.058 16H40.942C41.7527 16.0011 42.5299 16.3236 43.1032 16.8968C43.6764 17.4701 43.9989 18.2473 44 19.058V37.942Z" fill="#aaaaaa"/>
<path d="M30.9131 25.9L21.9131 20.7C21.4569 20.4366 20.9394 20.298 20.4126 20.2981C19.8859 20.2982 19.3684 20.437 18.9123 20.7005C18.4562 20.964 18.0775 21.343 17.8143 21.7993C17.5512 22.2557 17.4128 22.7732 17.4131 23.3V33.7C17.4106 34.2276 17.5477 34.7465 17.8103 35.2041C18.073 35.6617 18.4519 36.0417 18.9088 36.3056C19.3656 36.5696 19.8841 36.7081 20.4117 36.7071C20.9393 36.7061 21.4573 36.5657 21.9131 36.3L30.9131 31.1C31.3701 30.837 31.7496 30.4581 32.0136 30.0017C32.2775 29.5452 32.4165 29.0273 32.4165 28.5C32.4165 27.9728 32.2775 27.4548 32.0136 26.9984C31.7496 26.5419 31.3701 26.1631 30.9131 25.9V25.9ZM29.9131 29.364L20.9131 34.564C20.7611 34.6518 20.5887 34.698 20.4131 34.698C20.2376 34.698 20.0651 34.6518 19.9131 34.564C19.7611 34.4763 19.6349 34.35 19.5471 34.198C19.4593 34.046 19.4131 33.8736 19.4131 33.698V23.3C19.4114 23.1241 19.4568 22.951 19.5448 22.7987C19.6327 22.6464 19.7599 22.5204 19.9131 22.434C20.0671 22.3452 20.2414 22.2977 20.4191 22.296C20.5931 22.2973 20.7636 22.345 20.9131 22.434L29.9131 27.634C30.0651 27.7218 30.1914 27.848 30.2791 28C30.3669 28.1521 30.4131 28.3245 30.4131 28.5C30.4131 28.6755 30.3669 28.848 30.2791 29C30.1914 29.152 30.0651 29.2782 29.9131 29.366V29.364Z" fill="black"/>
</svg>
